<svg width="256" height="48" viewBox="0 0 256 48" fill="none" xmlns="http://www.w3.org/2000/svg">
<rect x="8" y="8" width="32" height="32" rx="4" fill="#0080FF"/>
<path d="M24 31.2002L17.7646 20.4002L30.2353 20.4002L24 31.2002Z" fill="white"/>
<path d="M53.7216 33V15.5455H60.267C61.608 15.5455 62.733 15.7784 63.642 16.2443C64.5568 16.7102 65.2472 17.3636 65.7131 18.2045C66.1847 19.0398 66.4205 20.0142 66.4205 21.1278C66.4205 22.2472 66.1818 23.2187 65.7045 24.0426C65.233 24.8608 64.5369 25.4943 63.6165 25.9432C62.696 26.3864 61.5653 26.608 60.2244 26.608H55.5625V23.983H59.7983C60.5824 23.983 61.2244 23.875 61.7244 23.6591C62.2244 23.4375 62.5938 23.1165 62.8324 22.696C63.0767 22.2699 63.1989 21.7472 63.1989 21.1278C63.1989 20.5085 63.0767 19.9801 62.8324 19.5426C62.5881 19.0994 62.2159 18.7642 61.7159 18.5369C61.2159 18.304 60.571 18.1875 59.7812 18.1875H56.8835V33H53.7216ZM62.7386 25.0909L67.0597 33H63.5312L59.2869 25.0909H62.7386ZM74.8026 33.2557C73.4901 33.2557 72.3565 32.983 71.402 32.4375C70.4531 31.8864 69.723 31.108 69.2116 30.1023C68.7003 29.0909 68.4446 27.9006 68.4446 26.5312C68.4446 25.1847 68.7003 24.0028 69.2116 22.9858C69.7287 21.9631 70.4503 21.1676 71.3764 20.5994C72.3026 20.0256 73.3906 19.7386 74.6406 19.7386C75.4474 19.7386 76.2088 19.8693 76.9247 20.1307C77.6463 20.3864 78.2827 20.7841 78.8338 21.3239C79.3906 21.8636 79.8281 22.5511 80.1463 23.3864C80.4645 24.2159 80.6236 25.2045 80.6236 26.3523V27.2983H69.8935V25.2188H77.6662C77.6605 24.6278 77.5327 24.1023 77.2827 23.642C77.0327 23.1761 76.6832 22.8097 76.2344 22.5426C75.7912 22.2756 75.2741 22.142 74.6832 22.142C74.0526 22.142 73.4986 22.2955 73.0213 22.6023C72.544 22.9034 72.1719 23.3011 71.9048 23.7955C71.6435 24.2841 71.5099 24.821 71.5043 25.4062V27.2216C71.5043 27.983 71.6435 28.6364 71.9219 29.1818C72.2003 29.7216 72.5895 30.1364 73.0895 30.4261C73.5895 30.7102 74.1747 30.8523 74.8452 30.8523C75.294 30.8523 75.7003 30.7898 76.0639 30.6648C76.4276 30.5341 76.7429 30.3438 77.0099 30.0938C77.277 29.8438 77.4787 29.5341 77.6151 29.1648L80.4957 29.4886C80.3139 30.25 79.9673 30.9148 79.456 31.483C78.9503 32.0455 78.3026 32.483 77.5128 32.7955C76.723 33.1023 75.8196 33.2557 74.8026 33.2557ZM83.37 33V15.5455H86.4553V22.0739H86.5831C86.7422 21.7557 86.9666 21.4176 87.2564 21.0597C87.5462 20.696 87.9382 20.3864 88.4325 20.1307C88.9268 19.8693 89.5575 19.7386 90.3246 19.7386C91.3359 19.7386 92.2479 19.9972 93.0604 20.5142C93.8786 21.0256 94.5263 21.7841 95.0036 22.7898C95.4865 23.7898 95.728 25.017 95.728 26.4716C95.728 27.9091 95.4922 29.1307 95.0206 30.1364C94.549 31.142 93.907 31.9091 93.0945 32.4375C92.282 32.9659 91.3615 33.2301 90.3331 33.2301C89.5831 33.2301 88.9609 33.1051 88.4666 32.8551C87.9723 32.6051 87.5746 32.304 87.2734 31.9517C86.978 31.5937 86.7479 31.2557 86.5831 30.9375H86.4041V33H83.37ZM86.3956 26.4545C86.3956 27.3011 86.5149 28.0426 86.7536 28.679C86.9979 29.3153 87.3473 29.8125 87.8018 30.1705C88.2621 30.5227 88.8189 30.6989 89.4723 30.6989C90.1541 30.6989 90.7251 30.517 91.1854 30.1534C91.6456 29.7841 91.9922 29.2812 92.2251 28.6449C92.4638 28.0028 92.5831 27.2727 92.5831 26.4545C92.5831 25.642 92.4666 24.9205 92.2337 24.2898C92.0007 23.6591 91.6541 23.1648 91.1939 22.8068C90.7337 22.4489 90.1598 22.2699 89.4723 22.2699C88.8132 22.2699 88.2536 22.4432 87.7933 22.7898C87.3331 23.1364 86.9837 23.6222 86.745 24.2472C86.5121 24.8722 86.3956 25.608 86.3956 26.4545ZM98.3509 33V19.9091H101.342V22.0909H101.479C101.717 21.3352 102.126 20.7528 102.706 20.3438C103.291 19.929 103.959 19.7216 104.709 19.7216C104.879 19.7216 105.07 19.7301 105.28 19.7472C105.496 19.7585 105.675 19.7784 105.817 19.8068V22.6449C105.686 22.5994 105.479 22.5597 105.195 22.5256C104.916 22.4858 104.646 22.4659 104.385 22.4659C103.822 22.4659 103.317 22.5881 102.868 22.8324C102.425 23.071 102.075 23.4034 101.82 23.8295C101.564 24.2557 101.436 24.7472 101.436 25.304V33H98.3509ZM116.21 27.4943V19.9091H119.295V33H116.304V30.6733H116.168C115.872 31.4062 115.386 32.0057 114.71 32.4716C114.04 32.9375 113.213 33.1705 112.23 33.1705C111.372 33.1705 110.614 32.9801 109.955 32.5994C109.301 32.2131 108.79 31.6534 108.42 30.9205C108.051 30.1818 107.866 29.2898 107.866 28.2443V19.9091H110.952V27.767C110.952 28.5966 111.179 29.2557 111.634 29.7443C112.088 30.233 112.685 30.4773 113.423 30.4773C113.878 30.4773 114.318 30.3665 114.744 30.1449C115.17 29.9233 115.52 29.5938 115.793 29.1562C116.071 28.7131 116.21 28.1591 116.21 27.4943ZM132.815 23.3693L130.002 23.6761C129.923 23.392 129.783 23.125 129.585 22.875C129.391 22.625 129.13 22.4233 128.8 22.2699C128.471 22.1165 128.067 22.0398 127.59 22.0398C126.948 22.0398 126.408 22.179 125.971 22.4574C125.539 22.7358 125.326 23.0966 125.332 23.5398C125.326 23.9205 125.465 24.2301 125.749 24.4688C126.039 24.7074 126.516 24.9034 127.181 25.0568L129.414 25.5341C130.653 25.8011 131.573 26.2244 132.175 26.804C132.783 27.3835 133.09 28.142 133.096 29.0795C133.09 29.9034 132.849 30.6307 132.371 31.2614C131.9 31.8864 131.244 32.375 130.403 32.7273C129.562 33.0795 128.596 33.2557 127.505 33.2557C125.903 33.2557 124.613 32.9205 123.636 32.25C122.658 31.5739 122.076 30.6335 121.888 29.429L124.897 29.1392C125.033 29.7301 125.323 30.1761 125.766 30.4773C126.21 30.7784 126.786 30.929 127.496 30.929C128.229 30.929 128.817 30.7784 129.261 30.4773C129.71 30.1761 129.934 29.804 129.934 29.3608C129.934 28.9858 129.789 28.6761 129.499 28.4318C129.215 28.1875 128.772 28 128.17 27.8693L125.937 27.4006C124.681 27.1392 123.752 26.6989 123.15 26.0795C122.548 25.4545 122.249 24.6648 122.255 23.7102C122.249 22.9034 122.468 22.2045 122.911 21.6136C123.36 21.017 123.982 20.5568 124.778 20.233C125.579 19.9034 126.502 19.7386 127.548 19.7386C129.082 19.7386 130.289 20.0653 131.17 20.7188C132.056 21.3722 132.604 22.2557 132.815 23.3693Z" fill="#324054"/>
</svg>
