<svg width="266" height="100" viewBox="0 0 266 100" fill="none" xmlns="http://www.w3.org/2000/svg">
<path d="M14.608 72.5V38.068H24.144V47.796L22.8 44.98C23.824 42.548 25.4667 40.7133 27.728 39.476C29.9893 38.196 32.7413 37.556 35.984 37.556V46.772C35.5573 46.7293 35.1733 46.708 34.832 46.708C34.4907 46.6653 34.128 46.644 33.744 46.644C31.0133 46.644 28.7947 47.4333 27.088 49.012C25.424 50.548 24.592 52.9587 24.592 56.244V72.5H14.608ZM58.7585 73.012C54.8332 73.012 51.3772 72.244 48.3905 70.708C45.4465 69.172 43.1638 67.0813 41.5425 64.436C39.9212 61.748 39.1105 58.6973 39.1105 55.284C39.1105 51.828 39.8998 48.7773 41.4785 46.132C43.0998 43.444 45.2972 41.3533 48.0705 39.86C50.8438 38.324 53.9798 37.556 57.4785 37.556C60.8492 37.556 63.8785 38.2813 66.5665 39.732C69.2972 41.14 71.4518 43.188 73.0305 45.876C74.6092 48.5213 75.3985 51.7 75.3985 55.412C75.3985 55.796 75.3772 56.244 75.3345 56.756C75.2918 57.2253 75.2492 57.6733 75.2065 58.1H47.2385V52.276H69.9585L66.1185 54.004C66.1185 52.212 65.7558 50.6547 65.0305 49.332C64.3052 48.0093 63.3025 46.9853 62.0225 46.26C60.7425 45.492 59.2492 45.108 57.5425 45.108C55.8358 45.108 54.3212 45.492 52.9985 46.26C51.7185 46.9853 50.7158 48.0307 49.9905 49.396C49.2652 50.7187 48.9025 52.2973 48.9025 54.132V55.668C48.9025 57.5453 49.3078 59.2093 50.1185 60.66C50.9718 62.068 52.1452 63.156 53.6385 63.924C55.1745 64.6493 56.9665 65.012 59.0145 65.012C60.8492 65.012 62.4492 64.7347 63.8145 64.18C65.2225 63.6253 66.5025 62.7933 67.6545 61.684L72.9665 67.444C71.3878 69.236 69.4038 70.6227 67.0145 71.604C64.6252 72.5427 61.8732 73.012 58.7585 73.012Z" fill="#0080FF"/>
<rect x="88" y="14" width="170" height="72" rx="15" fill="#0080FF"/>
<path d="M122.96 73.012C119.931 73.012 117.328 72.372 115.152 71.092C112.976 69.812 111.312 67.8707 110.16 65.268C109.008 62.6227 108.432 59.2947 108.432 55.284C108.432 51.2307 109.029 47.9027 110.224 45.3C111.461 42.6973 113.168 40.756 115.344 39.476C117.52 38.196 120.059 37.556 122.96 37.556C126.203 37.556 129.104 38.2813 131.664 39.732C134.267 41.1827 136.315 43.2307 137.808 45.876C139.344 48.5213 140.112 51.6573 140.112 55.284C140.112 58.868 139.344 61.9827 137.808 64.628C136.315 67.2733 134.267 69.3427 131.664 70.836C129.104 72.2867 126.203 73.012 122.96 73.012ZM102.608 72.5V25.012H112.592V45.044L111.952 55.22L112.144 65.46V72.5H102.608ZM121.232 64.82C122.896 64.82 124.368 64.436 125.648 63.668C126.971 62.9 128.016 61.812 128.784 60.404C129.595 58.9533 130 57.2467 130 55.284C130 53.2787 129.595 51.572 128.784 50.164C128.016 48.756 126.971 47.668 125.648 46.9C124.368 46.132 122.896 45.748 121.232 45.748C119.568 45.748 118.075 46.132 116.752 46.9C115.429 47.668 114.384 48.756 113.616 50.164C112.848 51.572 112.464 53.2787 112.464 55.284C112.464 57.2467 112.848 58.9533 113.616 60.404C114.384 61.812 115.429 62.9 116.752 63.668C118.075 64.436 119.568 64.82 121.232 64.82ZM146.796 72.5V38.068H156.332V47.796L154.988 44.98C156.012 42.548 157.654 40.7133 159.916 39.476C162.177 38.196 164.929 37.556 168.172 37.556V46.772C167.745 46.7293 167.361 46.708 167.02 46.708C166.678 46.6653 166.316 46.644 165.932 46.644C163.201 46.644 160.982 47.4333 159.276 49.012C157.612 50.548 156.78 52.9587 156.78 56.244V72.5H146.796ZM188.886 73.012C186.027 73.012 183.467 72.4573 181.206 71.348C178.987 70.2387 177.259 68.5533 176.022 66.292C174.785 63.988 174.166 61.0653 174.166 57.524V38.068H184.15V56.052C184.15 58.9107 184.747 61.0227 185.942 62.388C187.179 63.7107 188.907 64.372 191.126 64.372C192.662 64.372 194.027 64.052 195.222 63.412C196.417 62.7293 197.355 61.7053 198.038 60.34C198.721 58.932 199.062 57.1827 199.062 55.092V38.068H209.046V72.5H199.574V63.028L201.302 65.78C200.15 68.1693 198.443 69.9827 196.182 71.22C193.963 72.4147 191.531 73.012 188.886 73.012ZM229.88 73.012C226.936 73.012 224.098 72.6707 221.368 71.988C218.68 71.2627 216.546 70.3667 214.968 69.3L218.296 62.132C219.874 63.1133 221.73 63.924 223.864 64.564C226.04 65.1613 228.173 65.46 230.264 65.46C232.568 65.46 234.189 65.1827 235.128 64.628C236.109 64.0733 236.6 63.3053 236.6 62.324C236.6 61.5133 236.216 60.916 235.448 60.532C234.722 60.1053 233.741 59.7853 232.503 59.572C231.266 59.3587 229.901 59.1453 228.408 58.932C226.957 58.7187 225.485 58.4413 223.992 58.1C222.498 57.716 221.133 57.1613 219.896 56.436C218.658 55.7107 217.656 54.7293 216.888 53.492C216.162 52.2547 215.799 50.6547 215.799 48.692C215.799 46.516 216.418 44.596 217.656 42.932C218.936 41.268 220.77 39.9667 223.16 39.028C225.549 38.0467 228.408 37.556 231.736 37.556C234.082 37.556 236.472 37.812 238.904 38.324C241.336 38.836 243.362 39.5827 244.984 40.564L241.656 47.668C239.992 46.6867 238.306 46.0253 236.6 45.684C234.936 45.3 233.314 45.108 231.736 45.108C229.517 45.108 227.896 45.4067 226.872 46.004C225.848 46.6013 225.336 47.3693 225.336 48.308C225.336 49.1613 225.698 49.8013 226.424 50.228C227.192 50.6547 228.194 50.996 229.432 51.252C230.669 51.508 232.013 51.7427 233.464 51.956C234.957 52.1267 236.45 52.404 237.944 52.788C239.437 53.172 240.781 53.7267 241.976 54.452C243.213 55.1347 244.216 56.0947 244.984 57.332C245.752 58.5267 246.136 60.1053 246.136 62.068C246.136 64.2013 245.496 66.1 244.216 67.764C242.936 69.3853 241.08 70.6653 238.648 71.604C236.258 72.5427 233.336 73.012 229.88 73.012Z" fill="white"/>
</svg>
